. 
 
 
http://www.torrentday.com :  Your Key To The Scene.


Now TvTeam with [No-RAR] Releases.



(((((((((((((= Enjoy No RAR releases =))))))))))))))))))))



...................................NFO:....................................

.*******************************************************************************
                 Dark.Nature.2009.BDRip.AC3.X264-BARC0DE
*******************************************************************************

-------------------------------------------------------------------------------
                              General Information
-------------------------------------------------------------------------------
Type.................: Movie
Name.................: Dark Nature
Movie Information....: http://www.imdb.com/title/tt1285216/
Genre................: Thriller

-------------------------------------------------------------------------------
                                    PLOT
-------------------------------------------------------------------------------
A family holiday turns into a fight for survival in the inhospitable wilderness 
of remote Scotland.

-------------------------------------------------------------------------------
                                    CAST
-------------------------------------------------------------------------------
Niall Greig Fulton	... 	McKenzie
Imogen Toner	... 	Chloe
Jane Stabler	... 	Magda
James Bryce	... 	Jonathan
Joanna Miller	... 	Emily
Tom Carter	... 	Hayward
Vanya Eadie	... 	Jane
Doreen McGillivray	... 	Mrs Petrie
Len McCaffer	... 	Alex
Callum Warren-Brooker	... 	Sean

-------------------------------------------------------------------------------
                                    MEDiA iNFO
-------------------------------------------------------------------------------

General
Complete name                    : Dark.Nature.2009.BDRip.AC3.X264-BARC0DE.mkv
Format                           : Matroska
File size                        : 1.06 GiB
Duration                         : 1h 19mn
Overall bit rate                 : 1 909 Kbps

Video
ID                               : 1
Format                           : AVC
Format/Info                      : Advanced Video Codec
Format profile                   : High@L3.0
Format settings, CABAC           : Yes
Format settings, ReFrames        : 3 frames
Muxing mode                      : Container profile=Unknown@3.0
Codec ID                         : V_MPEG4/ISO/AVC
Duration                         : 1h 19mn
Bit rate                         : 1 647 Kbps
Nominal bit rate                 : 1 739 Kbps
Width                            : 720 pixels
Height                           : 304 pixels
Display aspect ratio             : 2.35:1
Frame rate                       : 23.976 fps
Resolution                       : 8 bits
Colorimetry                      : 4:2:0
Scan type                        : Progressive
Bits/(Pixel*Frame)               : 0.314
Stream size                      : 938 MiB (86%)
Writing library                  : x264 core 79


Audio
ID                               : 2
Format                           : AC-3
Format/Info                      : Audio Coding 3
Codec ID                         : A_AC3
Duration                         : 1h 19mn
Bit rate mode                    : Constant
Bit rate                         : 224 Kbps
Channel(s)                       : 2 channels
Channel positions                : Front: L R
Sampling rate                    : 48.0 KHz
Stream size                      : 128 MiB (12%)
Language                         : English